<?xml version="1.0" encoding="UTF-8"?>
<svg xmlns="http://www.w3.org/2000/svg" xmlns:xlink="http://www.w3.org/1999/xlink" width="240.101" height="40" viewBox="0 0 240.101 40">
  <defs>
    <clipPath id="clip-path">
      <path id="Path_44" data-name="Path 44" d="M0,0H240.1V40H0Z" fill="none"></path>
    </clipPath>
  </defs>
  <g id="ShopifyPartners_Primary" clip-path="url(#clip-path)">
    <g id="Group_17" data-name="Group 17" transform="translate(142.428 11.949)">
      <path id="Path_25" data-name="Path 25" d="M313.341,57.466l3.33-17.756c.417-2.228.729-4.2.938-5.734h1.425l-.52,3.37h.069c1.495-2.258,3.58-3.717,5.8-3.717,3.163,0,4.343,2.71,4.343,5.421,0,5.629-3.857,11.949-9.174,11.949a6.836,6.836,0,0,1-3.335-.729h-.07l-1.316,7.19Zm3.127-8.722a5.258,5.258,0,0,0,3.232.938c4.413,0,7.471-6.254,7.471-10.532,0-1.981-.765-4.17-3.231-4.17-2.364,0-5.456,2.988-6.394,8.027Z" transform="translate(-313.341 -30.293)" fill="#fff"></path>
      <path id="Path_26" data-name="Path 26" d="M360.576,50.654a34.047,34.047,0,0,1,.416-4.482h-.067C359.014,49.855,356.894,51,354.7,51c-2.531,0-4.065-2.085-4.065-5.073,0-5.664,4.065-12.3,10.531-12.3a12.112,12.112,0,0,1,3.37.486l-1.772,9a35.524,35.524,0,0,0-.729,7.54ZM362.8,35.225a6.037,6.037,0,0,0-2.016-.243c-4.8,0-8.548,5.352-8.582,10.6-.035,2.155.59,4.1,2.849,4.1,2.711,0,5.772-4.065,6.568-8.375Z" transform="translate(-333.685 -30.291)" fill="#fff"></path>
      <path id="Path_27" data-name="Path 27" d="M384.348,50.654l2.12-11.224c.416-2.119.66-4,.8-5.455h1.39c-.139,1.077-.278,2.189-.486,3.614h.07c1.042-2.228,2.675-3.962,4.76-3.962a3.157,3.157,0,0,1,.626.069l-.279,1.565a2.7,2.7,0,0,0-.59-.07c-2.189,0-4.622,3.3-5.317,6.987l-1.564,8.479Z" transform="translate(-352.072 -30.291)" fill="#fff"></path>
      <path id="Path_28" data-name="Path 28" d="M412.789,26.289l-.729,3.684h3.926l-.277,1.286h-3.927L409.94,41.2a15.513,15.513,0,0,0-.347,2.884c0,.973.451,1.564,1.495,1.564a3.745,3.745,0,0,0,1.215-.139l.1,1.215a5.78,5.78,0,0,1-1.633.243,2.519,2.519,0,0,1-2.745-2.71,13.56,13.56,0,0,1,.383-3.058l1.876-9.938h-2.4l.243-1.286h2.43l.556-2.988Z" transform="translate(-364.911 -26.289)" fill="#fff"></path>
      <path id="Path_29" data-name="Path 29" d="M424.864,50.654l2.228-11.78a49.23,49.23,0,0,0,.765-4.9h1.389l-.455,3.406h.07c1.459-2.43,3.544-3.753,5.8-3.753,1.634,0,3.719,1.042,3.719,4.2a13.589,13.589,0,0,1-.313,2.571l-1.911,10.251h-1.495L436.61,40.4a13.42,13.42,0,0,0,.243-2.43c0-1.738-.695-2.988-2.745-2.988-2.228,0-5.351,2.78-6.076,6.811L426.4,50.656Z" transform="translate(-374.172 -30.291)" fill="#fff"></path>
      <path id="Path_30" data-name="Path 30" d="M469.754,49.716a8.6,8.6,0,0,1-4.552,1.251c-3.893,0-5.247-3.058-5.247-6.255,0-4.795,3.335-11.085,8.131-11.085a3.527,3.527,0,0,1,3.892,3.646c0,4.239-4.861,5.421-10.321,5.386a11.408,11.408,0,0,0,.14,4.135,3.581,3.581,0,0,0,3.645,2.815A7.251,7.251,0,0,0,469.3,48.5Zm-1.946-14.734c-2.571,0-4.9,2.78-5.907,6.359,4.343.034,8.513-.7,8.513-4C470.415,35.781,469.371,34.982,467.808,34.982Z" transform="translate(-393.312 -30.291)" fill="#fff"></path>
      <path id="Path_31" data-name="Path 31" d="M488.24,50.654l2.12-11.224c.417-2.119.66-4,.8-5.455h1.39c-.14,1.077-.278,2.189-.487,3.614h.07c1.042-2.228,2.675-3.962,4.759-3.962a3.149,3.149,0,0,1,.626.069l-.278,1.565a2.706,2.706,0,0,0-.59-.07c-2.19,0-4.622,3.3-5.316,6.987l-1.565,8.479Z" transform="translate(-408.74 -30.291)" fill="#fff"></path>
      <path id="Path_32" data-name="Path 32" d="M506.452,48.706a5.517,5.517,0,0,0,2.954.9,3.454,3.454,0,0,0,3.645-3.443c0-1.669-.695-2.676-2.258-3.684a5.048,5.048,0,0,1-2.538-4.1,4.8,4.8,0,0,1,5-4.759,5.1,5.1,0,0,1,2.78.765l-.557,1.287a4.9,4.9,0,0,0-2.4-.695,3.126,3.126,0,0,0-3.336,3.127c0,1.565.869,2.43,2.259,3.342a5.258,5.258,0,0,1,2.571,4.274,5.048,5.048,0,0,1-5.316,5.247,5.862,5.862,0,0,1-3.371-1.008Z" transform="translate(-418.369 -30.289)" fill="#fff"></path>
    </g>
    <path id="Path_33" data-name="Path 33" d="M30.252,7.516a.38.38,0,0,0-.342-.32c-.142-.011-2.918-.054-2.918-.054S24.669,4.889,24.44,4.665a.967.967,0,0,0-.852-.108l-1.167.361a8.139,8.139,0,0,0-.558-1.372,3.934,3.934,0,0,0-3.5-2.414h-.005c-.1,0-.2.01-.3.019-.042-.052-.086-.1-.133-.153a3.064,3.064,0,0,0-2.43-.984c-1.893.049-3.773,1.411-5.3,3.841a15.242,15.242,0,0,0-2.122,5.5l-3.72,1.152c-1.095.343-1.129.378-1.273,1.41C2.97,12.7.1,34.855.1,34.855l24.012,4.152,10.407-2.586s-4.242-28.707-4.272-28.9ZM21.219,5.288l-1.863.576a10.308,10.308,0,0,0-.574-3.438c1.434.269,2.14,1.891,2.437,2.859ZM18.1,6.254,14.091,7.492a9.488,9.488,0,0,1,2.025-3.928,4.034,4.034,0,0,1,1.361-.991A9.038,9.038,0,0,1,18.1,6.25ZM15.526,1.265a1.933,1.933,0,0,1,1.136.3,5.48,5.48,0,0,0-1.468,1.143A11,11,0,0,0,12.708,7.92L9.421,8.94c.644-3.036,3.188-7.591,6.1-7.675Z" transform="translate(-0.057 -0.006)" fill="#fff"></path>
    <path id="Path_34" data-name="Path 34" d="M58.725,12.6c-.142-.011-2.918-.054-2.918-.054s-2.322-2.253-2.551-2.478a.57.57,0,0,0-.322-.149V44.412L63.34,41.825s-4.242-28.707-4.272-28.9a.38.38,0,0,0-.342-.32Z" transform="translate(-28.873 -5.411)" fill="#fff"></path>
    <path id="Path_35" data-name="Path 35" d="M26.029,27.1,24.82,31.621a6.848,6.848,0,0,0-2.947-.513c-2.342.148-2.369,1.626-2.342,2,.128,2.025,5.448,2.464,5.747,7.2.236,3.727-1.977,6.278-5.165,6.481a7.738,7.738,0,0,1-5.93-2.015l.81-3.443s2.117,1.59,3.814,1.48A1.5,1.5,0,0,0,20.271,41.2c-.167-2.633-4.5-2.483-4.773-6.817-.23-3.646,2.165-7.344,7.451-7.678a6.522,6.522,0,0,1,3.079.394Z" transform="translate(-7.736 -14.556)" fill="#18181b"></path>
    <path id="Path_36" data-name="Path 36" d="M96.5,40.345c-1.206-.654-1.823-1.206-1.823-1.965,0-.965.862-1.585,2.207-1.585a7.889,7.889,0,0,1,2.964.654l1.095-3.377s-1.013-.793-4-.793c-4.152,0-7.032,2.378-7.032,5.722,0,1.9,1.345,3.342,3.139,4.377,1.447.827,1.965,1.418,1.965,2.275,0,.9-.724,1.62-2.068,1.62a9.288,9.288,0,0,1-3.895-1.034l-1.175,3.377a8.975,8.975,0,0,0,4.688,1.172c4.274,0,7.342-2.1,7.342-5.894,0-2.033-1.547-3.482-3.409-4.55Z" transform="translate(-47.936 -18.152)" fill="#fff"></path>
    <path id="Path_37" data-name="Path 37" d="M129.132,24.717a6.435,6.435,0,0,0-5.032,2.515l-.07-.033,1.823-9.547H121.1l-4.619,24.3h4.76l1.585-8.3c.621-3.139,2.241-5.063,3.757-5.063,1.068,0,1.482.724,1.482,1.758a10.776,10.776,0,0,1-.208,2.1l-1.8,9.506h4.759l1.86-9.823a17.792,17.792,0,0,0,.345-3.1C133.027,26.337,131.613,24.717,129.132,24.717Z" transform="translate(-63.538 -9.628)" fill="#fff"></path>
    <path id="Path_38" data-name="Path 38" d="M165.12,33.195c-5.721,0-9.511,5.174-9.511,10.93,0,3.688,2.275,6.652,6.549,6.652,5.618,0,9.409-5.032,9.409-10.926,0-3.416-2-6.656-6.447-6.656Zm-2.343,13.924c-1.62,0-2.31-1.378-2.31-3.1,0-2.723,1.418-7.169,4-7.169,1.689,0,2.24,1.447,2.24,2.861,0,2.934-1.413,7.414-3.928,7.414Z" transform="translate(-84.878 -18.106)" fill="#fff"></path>
    <path id="Path_39" data-name="Path 39" d="M201.514,33.195a6.509,6.509,0,0,0-5.034,2.835h-.069l.275-2.551h-4.2c-.2,1.722-.586,4.343-.965,6.308l-3.308,17.4h4.76l1.309-7.031h.1a5.539,5.539,0,0,0,2.792.621c5.584,0,9.237-5.721,9.237-11.512-.005-3.205-1.414-6.07-4.9-6.07Zm-4.549,14A3.02,3.02,0,0,1,195,46.5l.793-4.447c.551-2.964,2.1-4.929,3.756-4.929,1.448,0,1.9,1.344,1.9,2.62C201.442,42.815,199.62,47.192,196.966,47.192Z" transform="translate(-102.661 -18.106)" fill="#fff"></path>
    <path id="Path_40" data-name="Path 40" d="M239.916,18.19a2.712,2.712,0,0,0-2.722,2.757,2.189,2.189,0,0,0,2.24,2.378h.069a2.685,2.685,0,0,0,2.792-2.757A2.261,2.261,0,0,0,239.916,18.19Z" transform="translate(-129.379 -9.922)" fill="#fff"></path>
    <path id="Path_41" data-name="Path 41" d="M228.551,50.892h4.756l3.24-16.855h-4.791Z" transform="translate(-124.664 -18.566)" fill="#fff"></path>
    <path id="Path_42" data-name="Path 42" d="M259.313,24.661H256l.172-.792c.275-1.62,1.24-3.068,2.826-3.068a4.934,4.934,0,0,1,1.519.242l.928-3.717a6.272,6.272,0,0,0-2.585-.414,7.061,7.061,0,0,0-4.652,1.586,9.026,9.026,0,0,0-2.758,5.377l-.138.792h-2.205l-.69,3.585h2.205l-2.516,13.3h4.76l2.51-13.309h3.274Z" transform="translate(-135.333 -9.224)" fill="#fff"></path>
    <path id="Path_43" data-name="Path 43" d="M282.258,34.037s-2.973,7.494-4.309,11.581h-.068c-.092-1.316-1.173-11.581-1.173-11.581h-5l2.861,15.475a1.02,1.02,0,0,1-.1.793,8.145,8.145,0,0,1-2.585,2.861A10.277,10.277,0,0,1,269.2,54.51l1.309,4.033a10.865,10.865,0,0,0,4.659-2.585c2.171-2.033,4.17-5.171,6.238-9.444l5.825-12.477Z" transform="translate(-146.835 -18.566)" fill="#fff"></path>
  </g>
</svg>
