<?xml version="1.0" encoding="UTF-8"?>
<svg xmlns="http://www.w3.org/2000/svg" width="149" height="40" viewBox="0 0 149 40" fill="none">
  <g clip-path="url(#clip0_4116_2149)">
    <mask id="mask0_4116_2149" style="mask-type:luminance" maskUnits="userSpaceOnUse" x="0" y="0" width="149" height="40">
      <path d="M149 0H0V40H149V0Z" fill="white"></path>
    </mask>
    <g mask="url(#mask0_4116_2149)">
      <mask id="mask1_4116_2149" style="mask-type:luminance" maskUnits="userSpaceOnUse" x="0" y="0" width="54" height="40">
        <path d="M0 9.09091C0 4.07015 4.05942 0 9.06694 0H53.4949V40H9.06694C4.05942 40 0 35.93 0 30.9091V9.09091Z" fill="white"></path>
      </mask>
      <g mask="url(#mask1_4116_2149)">
        <path d="M-1.51172 9.09092C-1.51172 3.23335 3.22424 -1.51514 9.06637 -1.51514H53.4944V1.51517H9.06637C4.89344 1.51517 1.51059 4.90695 1.51059 9.09092H-1.51172ZM53.4944 41.5152H9.06637C3.22424 41.5152 -1.51172 36.7667 -1.51172 30.9091H1.51059C1.51059 35.093 4.89344 38.4849 9.06637 38.4849H53.4944V41.5152ZM9.06637 41.5152C3.22424 41.5152 -1.51172 36.7667 -1.51172 30.9091V9.09092C-1.51172 3.23335 3.22424 -1.51514 9.06637 -1.51514V1.51517C4.89344 1.51517 1.51059 4.90695 1.51059 9.09092V30.9091C1.51059 35.093 4.89344 38.4849 9.06637 38.4849V41.5152Z" fill="white"></path>
      </g>
      <mask id="mask2_4116_2149" style="mask-type:luminance" maskUnits="userSpaceOnUse" x="8" y="15" width="38" height="10">
        <path d="M45.4845 15.1515H8.00781V24.8485H45.4845V15.1515Z" fill="white"></path>
      </mask>
      <g mask="url(#mask2_4116_2149)">
        <path fill-rule="evenodd" clip-rule="evenodd" d="M23.8068 15.1515C22.9291 15.1515 22.3575 15.4373 21.8473 16.3968L19.5203 20.7859V16.8867C19.5203 15.7231 18.9691 15.1515 17.9485 15.1515C16.9279 15.1515 16.4993 15.4985 15.989 16.4784L13.7844 20.7859V16.9276C13.7844 15.6823 13.2741 15.1515 12.029 15.1515H9.4979C8.53853 15.1515 8.00781 15.6006 8.00781 16.4172C8.00781 17.2338 8.51813 17.7237 9.45707 17.7237H10.4981V22.6437C10.4981 24.0319 11.437 24.8485 12.7842 24.8485C14.1314 24.8485 14.7438 24.3177 15.4174 23.0724L16.8871 20.3164V22.6437C16.8871 24.0115 17.7852 24.8485 19.1528 24.8485C20.5205 24.8485 21.0307 24.3789 21.8064 23.0724L25.1948 17.3563C25.9297 16.111 25.4194 15.1515 23.7864 15.1515C23.7864 15.1515 23.7864 15.1515 23.8068 15.1515Z" fill="white"></path>
        <path fill-rule="evenodd" clip-rule="evenodd" d="M30.1754 15.1515C27.3993 15.1515 25.2969 17.2134 25.2969 20.0102C25.2969 22.807 27.4197 24.8485 30.1754 24.8485C32.9309 24.8485 35.0335 22.7866 35.0538 20.0102C35.0538 17.2134 32.9309 15.1515 30.1754 15.1515ZM30.1754 21.8679C29.1343 21.8679 28.4199 21.0922 28.4199 20.0102C28.4199 18.9282 29.1343 18.132 30.1754 18.132C31.2163 18.132 31.9308 18.9282 31.9308 20.0102C31.9308 21.0922 31.2369 21.8679 30.1754 21.8679Z" fill="white"></path>
        <path fill-rule="evenodd" clip-rule="evenodd" d="M40.6049 15.1515C37.8494 15.1515 35.7266 17.2134 35.7266 20.0102C35.7266 22.807 37.8494 24.8485 40.6049 24.8485C43.3606 24.8485 45.4835 22.7866 45.4835 20.0102C45.4835 17.2338 43.3606 15.1515 40.6049 15.1515ZM40.6049 21.8679C39.5434 21.8679 38.8701 21.0922 38.8701 20.0102C38.8701 18.9282 39.564 18.132 40.6049 18.132C41.6461 18.132 42.3605 18.9282 42.3605 20.0102C42.3605 21.0922 41.6663 21.8679 40.6049 21.8679Z" fill="white"></path>
      </g>
      <path d="M139.934 0C144.942 0 149.001 4.07015 149.001 9.09091V30.9091C149.001 35.93 144.942 40 139.934 40H53.4961V0H139.934ZM127.868 17.4811C127.156 17.4811 126.536 17.6389 126.007 17.9545C125.481 18.2702 125.074 18.7106 124.784 19.2756C124.494 19.8406 124.35 20.4972 124.35 21.2453C124.35 22.0123 124.494 22.6768 124.784 23.2386C125.074 23.7973 125.486 24.2298 126.021 24.536C126.56 24.839 127.202 24.9905 127.948 24.9905C128.546 24.9905 129.074 24.899 129.53 24.7159C129.99 24.5297 130.364 24.2708 130.654 23.9394C130.946 23.6048 131.14 23.2134 131.235 22.7652L129.374 22.6421C129.305 22.8251 129.204 22.9798 129.072 23.1061C128.94 23.2323 128.781 23.327 128.595 23.3902C128.409 23.4533 128.205 23.4848 127.981 23.4848C127.644 23.4848 127.353 23.4138 127.108 23.2718C126.862 23.1297 126.671 22.9277 126.536 22.6657C126.404 22.4037 126.338 22.0928 126.338 21.733V21.7282H131.277V21.1742C131.277 20.5555 131.191 20.0158 131.018 19.5549C130.844 19.0909 130.602 18.7058 130.29 18.3996C129.982 18.0935 129.62 17.8646 129.204 17.7131C128.792 17.5584 128.346 17.4811 127.868 17.4811ZM101.555 17.4811C100.975 17.4811 100.465 17.5695 100.024 17.7462C99.5867 17.9198 99.2294 18.1692 98.9526 18.4943C98.6754 18.8163 98.4899 19.1982 98.3956 19.6402L100.256 19.7917C100.325 19.5518 100.467 19.3529 100.681 19.1951C100.895 19.0341 101.183 18.9536 101.545 18.9536C101.888 18.9536 102.153 19.0357 102.338 19.1998C102.527 19.3639 102.622 19.596 102.622 19.8958V19.9242C102.622 20.0789 102.563 20.1957 102.447 20.2746C102.331 20.3535 102.143 20.4135 101.885 20.4545C101.627 20.4924 101.287 20.5335 100.865 20.5776C100.506 20.6124 100.163 20.6723 99.8354 20.7576C99.5111 20.8428 99.2216 20.9691 98.9665 21.1364C98.7117 21.3037 98.5101 21.5246 98.362 21.7992C98.2142 22.0738 98.1402 22.4132 98.1402 22.8172C98.1402 23.297 98.2442 23.6979 98.4518 24.0199C98.6627 24.3387 98.9493 24.5802 99.3113 24.7443C99.6734 24.9053 100.086 24.9858 100.549 24.9858C100.907 24.9858 101.224 24.9384 101.498 24.8438C101.772 24.7459 102.006 24.6118 102.202 24.4413C102.397 24.2677 102.552 24.0672 102.669 23.84H102.726V24.8485H104.633V19.9432C104.633 19.5107 104.55 19.1398 104.383 18.8305C104.216 18.518 103.988 18.2623 103.699 18.0635C103.412 17.8646 103.083 17.7178 102.711 17.6231C102.343 17.5284 101.957 17.4811 101.555 17.4811ZM81.4724 15.0189C80.6132 15.0189 79.8419 15.2146 79.1586 15.6061C78.4755 15.9943 77.9354 16.5593 77.5389 17.3012C77.1421 18.0429 76.9438 18.9426 76.9438 20C76.9438 21.0543 77.1421 21.9524 77.5389 22.6941C77.9354 23.4359 78.4755 24.0025 79.1586 24.3939C79.8419 24.7854 80.6132 24.9811 81.4724 24.9811C82.3256 24.9811 83.0939 24.7869 83.7769 24.3987C84.4633 24.0073 85.0049 23.4407 85.4014 22.6988C85.8013 21.9571 86.0014 21.0575 86.0014 20C86.0014 18.9425 85.8013 18.0429 85.4014 17.3012C85.0049 16.5593 84.4633 15.9943 83.7769 15.6061C83.0939 15.2146 82.3256 15.0189 81.4724 15.0189ZM112.082 15.8333V17.5758H111.09V19.0909H112.082V22.8788C112.079 23.3554 112.178 23.75 112.38 24.0625C112.581 24.375 112.863 24.6054 113.225 24.7538C113.59 24.9022 114.015 24.9669 114.5 24.9479C114.761 24.9385 114.983 24.9116 115.165 24.8674C115.348 24.8264 115.49 24.7901 115.591 24.7585L115.274 23.2576C115.224 23.267 115.151 23.2813 115.057 23.3002C114.962 23.316 114.868 23.3239 114.773 23.3239C114.638 23.3239 114.519 23.3033 114.415 23.2623C114.314 23.2213 114.235 23.1502 114.179 23.0492C114.122 22.9451 114.093 22.7999 114.093 22.6136V19.0909H115.459V17.5758H114.093V15.8333H112.082ZM59.7768 24.8485H61.8217V21.7045H63.5404C64.2836 21.7045 64.9165 21.5672 65.4394 21.2926C65.9646 21.018 66.366 20.6344 66.6432 20.1421C66.9203 19.6496 67.0587 19.0814 67.0587 18.4375C67.0587 17.7936 66.9221 17.2254 66.6483 16.733C66.3775 16.2374 65.9837 15.8507 65.4672 15.5729C64.951 15.292 64.3259 15.1515 63.5924 15.1515H59.7768V24.8485ZM68.3873 24.8485H70.4316V21.411H71.9243L73.7562 24.8485H76.0135L73.9614 21.081C73.991 21.0682 74.02 21.0552 74.049 21.0417C74.5746 20.7955 74.9763 20.4419 75.2531 19.9811C75.5303 19.517 75.6687 18.9631 75.6687 18.3191C75.6687 17.6783 75.5318 17.1212 75.258 16.6477C74.9872 16.1711 74.5921 15.8033 74.0726 15.5445C73.5564 15.2825 72.9329 15.1515 72.203 15.1515H68.3873V24.8485ZM90.3021 15.1515V24.8485H92.347V21.7045H94.0658C94.809 21.7045 95.4419 21.5672 95.9647 21.2926C96.49 21.018 96.8914 20.6344 97.1685 20.1421C97.4457 19.6496 97.5841 19.0814 97.5841 18.4375C97.5841 17.7936 97.4475 17.2254 97.1736 16.733C96.9028 16.2374 96.509 15.8507 95.9925 15.5729C95.4763 15.292 94.8513 15.1515 94.1178 15.1515H90.3021ZM109.763 17.4716C109.357 17.4716 108.998 17.5884 108.687 17.822C108.375 18.0524 108.153 18.3933 108.021 18.8447H107.945V17.5758H105.995V24.8485H108.007V20.7339C108.007 20.4372 108.073 20.1752 108.205 19.9479C108.34 19.7207 108.523 19.5439 108.752 19.4176C108.985 19.2882 109.25 19.2235 109.546 19.2235C109.685 19.2235 109.837 19.2345 110.004 19.2566C110.171 19.2787 110.302 19.304 110.396 19.3324V17.5426C110.308 17.5205 110.206 17.5032 110.089 17.4905C109.973 17.4779 109.864 17.4716 109.763 17.4716ZM120.753 17.4811C120.215 17.4811 119.757 17.6058 119.379 17.8551C119.001 18.1013 118.732 18.4359 118.572 18.8589H118.487V17.5758H116.569V24.8485H118.581V20.6439C118.585 20.3315 118.642 20.0647 118.756 19.8438C118.872 19.6196 119.033 19.4492 119.238 19.3324C119.445 19.2156 119.685 19.1572 119.956 19.1572C120.358 19.1572 120.675 19.2835 120.905 19.536C121.134 19.7853 121.248 20.1326 121.245 20.5776V24.8485H123.256V20.2178C123.256 19.6528 123.152 19.1667 122.945 18.7595C122.737 18.3492 122.446 18.0335 122.071 17.8125C121.697 17.5916 121.257 17.4811 120.753 17.4811ZM136.159 17.4716C135.753 17.4716 135.394 17.5884 135.082 17.822C134.771 18.0524 134.549 18.3933 134.416 18.8447H134.341V17.5758H132.391V24.8485H134.402V20.7339C134.402 20.4372 134.469 20.1752 134.601 19.9479C134.736 19.7207 134.919 19.5439 135.148 19.4176C135.381 19.2882 135.646 19.2235 135.942 19.2235C136.08 19.2235 136.233 19.2345 136.4 19.2566C136.567 19.2787 136.698 19.304 136.792 19.3324V17.5426C136.704 17.5205 136.601 17.5032 136.485 17.4905C136.368 17.4779 136.26 17.4716 136.159 17.4716ZM102.636 22.2491C102.636 22.5047 102.571 22.7336 102.442 22.9356C102.313 23.1376 102.135 23.2986 101.909 23.4185C101.682 23.5354 101.421 23.5938 101.125 23.5938C100.816 23.5937 100.561 23.5227 100.36 23.3807C100.162 23.2355 100.062 23.0256 100.062 22.7509C100.062 22.5615 100.111 22.4037 100.209 22.2775C100.307 22.1481 100.443 22.0455 100.619 21.9697C100.796 21.8939 101.002 21.8387 101.238 21.804C101.348 21.7882 101.471 21.7708 101.607 21.7519C101.742 21.7298 101.877 21.7061 102.013 21.6809C102.148 21.6525 102.269 21.6225 102.376 21.5909C102.486 21.5562 102.573 21.5183 102.636 21.4773V22.2491ZM81.4724 16.8324C81.9669 16.8324 82.3985 16.9539 82.7669 17.197C83.1347 17.44 83.4197 17.7968 83.6213 18.267C83.8259 18.7374 83.9281 19.315 83.9281 20C83.9281 20.685 83.8259 21.2626 83.6213 21.733C83.4197 22.2032 83.1347 22.56 82.7669 22.803C82.3985 23.0461 81.9669 23.1676 81.4724 23.1676C80.9783 23.1676 80.547 23.0461 80.1786 22.803C79.8102 22.56 79.5236 22.2033 79.319 21.733C79.1178 21.2626 79.0168 20.685 79.0168 20C79.0168 19.315 79.1178 18.7374 79.319 18.267C79.5236 17.7968 79.8102 17.44 80.1786 17.197C80.547 16.9539 80.9783 16.8324 81.4724 16.8324ZM127.901 18.9867C128.193 18.9868 128.45 19.0515 128.67 19.1809C128.894 19.3071 129.069 19.4824 129.195 19.7064C129.32 19.9305 129.384 20.1878 129.384 20.4782H126.34C126.353 20.2171 126.419 19.9788 126.541 19.7633C126.673 19.5265 126.855 19.3387 127.089 19.1998C127.325 19.0578 127.596 18.9867 127.901 18.9867ZM93.7258 16.8276C94.1226 16.8277 94.4499 16.8955 94.708 17.0312C94.9665 17.1638 95.1587 17.3516 95.2847 17.5947C95.4138 17.8346 95.4778 18.1155 95.4778 18.4375C95.4778 18.7563 95.4138 19.0388 95.2847 19.285C95.1587 19.5281 94.9665 19.7191 94.708 19.8579C94.4533 19.9937 94.129 20.0615 93.7358 20.0615H92.347V16.8276H93.7258ZM63.2004 16.8276C63.5973 16.8277 63.9246 16.8955 64.1827 17.0312C64.4411 17.1638 64.6333 17.3516 64.7593 17.5947C64.8884 17.8346 64.9525 18.1155 64.9525 18.4375C64.9525 18.7563 64.8884 19.0388 64.7593 19.285C64.6333 19.5281 64.4411 19.7191 64.1827 19.8579C63.9279 19.9937 63.6036 20.0615 63.2104 20.0615H61.8217V16.8276H63.2004ZM71.811 16.8276C72.2042 16.8277 72.53 16.8861 72.7881 17.0028C73.0495 17.1165 73.243 17.2838 73.369 17.5047C73.4981 17.7257 73.563 17.9972 73.563 18.3191C73.563 18.6379 73.4981 18.9047 73.369 19.1193C73.243 19.3339 73.0511 19.4949 72.7933 19.6023C72.5348 19.7096 72.2106 19.7633 71.8201 19.7633H70.4316V16.8276H71.811Z" fill="white"></path>
    </g>
  </g>
  <defs>
    <clipPath id="clip0_4116_2149">
      <rect width="149" height="40" fill="white"></rect>
    </clipPath>
  </defs>
</svg>
