<?xml version="1.0" encoding="UTF-8"?>
<svg xmlns="http://www.w3.org/2000/svg" id="WordPress-Logo.wine" width="176.293" height="40" viewBox="0 0 176.293 40">
  <path id="Path_7" data-name="Path 7" d="M188.1,40.228h-6.94v.736c2.171,0,2.52.465,2.52,3.218v4.963c0,2.752-.349,3.257-2.52,3.257-1.667-.232-2.791-1.124-4.342-2.83l-1.783-1.938c2.4-.427,3.683-1.939,3.683-3.645,0-2.132-1.822-3.76-5.234-3.76h-6.823v.736c2.171,0,2.52.465,2.52,3.218v4.963c0,2.752-.349,3.257-2.52,3.257v.737h7.715V52.4c-2.171,0-2.52-.5-2.52-3.257v-1.4h.659l4.3,5.388H188.1c5.544,0,7.948-2.946,7.948-6.475s-2.4-6.435-7.948-6.435Zm-16.244,6.319V41.391h1.589a2.579,2.579,0,0,1,0,5.156h-1.589Zm16.36,5.389h-.272c-1.4,0-1.589-.349-1.589-2.132V41.391h1.861c4.032,0,4.768,2.946,4.768,5.234C192.983,48.99,192.247,51.936,188.215,51.936Zm-43.149-3.954,2.675-7.909c.776-2.287.427-2.946-2.054-2.946v-.776h7.288v.776c-2.442,0-3.024.581-3.993,3.412L144.562,53.8h-.5L140.1,41.662,136.072,53.8h-.5l-4.3-13.259c-.93-2.83-1.551-3.412-3.8-3.412v-.776h8.607v.776c-2.288,0-2.908.543-2.094,2.946l2.6,7.909,3.916-11.631h.737Zm13.181,5.66c-4.264,0-7.754-3.14-7.754-6.979,0-3.8,3.49-6.94,7.754-6.94S166,42.864,166,46.663C166,50.5,162.511,53.642,158.247,53.642Zm0-12.716c-3.566,0-4.807,3.217-4.807,5.737,0,2.559,1.241,5.738,4.807,5.738,3.606,0,4.846-3.179,4.846-5.738C163.093,44.143,161.853,40.926,158.247,40.926Z" transform="translate(-85.852 -24.484)" fill="#fff"></path>
  <path id="Path_8" data-name="Path 8" d="M348.548,52.362v.775H339.67v-.775c2.6,0,3.063-.659,3.063-4.536v-6.2c0-3.877-.465-4.5-3.063-4.5V36.35h8.025c3.993,0,6.2,2.055,6.2,4.808,0,2.675-2.211,4.768-6.2,4.768h-2.21v1.9c0,3.878.465,4.537,3.063,4.537Zm-.853-14.616h-2.21v6.746h2.21a3.03,3.03,0,0,0,3.179-3.334C350.874,39.3,349.866,37.746,347.695,37.746Zm32.837,11.748-.194.7c-.349,1.279-.776,1.745-3.528,1.745h-.543c-2.016,0-2.365-.465-2.365-3.218V46.935c3.024,0,3.257.271,3.257,2.287h.737V43.445h-.737c0,2.016-.233,2.287-3.257,2.287V41.391h2.132c2.753,0,3.179.465,3.528,1.745l.194.736h.62l-.271-3.644h-11.4v.736c2.171,0,2.52.465,2.52,3.218v4.963c0,2.518-.3,3.152-2.008,3.243-1.627-.248-2.744-1.136-4.272-2.816l-1.783-1.938c2.4-.427,3.683-1.939,3.683-3.645,0-2.132-1.822-3.76-5.234-3.76H354.79v.736c2.171,0,2.52.465,2.52,3.218v4.963c0,2.752-.349,3.257-2.52,3.257v.737h7.715V52.4c-2.171,0-2.52-.5-2.52-3.257v-1.4h.659l4.3,5.388h15.934l.233-3.644h-.582Zm-20.547-2.947V41.391h1.589a2.579,2.579,0,0,1,0,5.156h-1.589ZM388.4,53.641a5.731,5.731,0,0,1-3.489-1.318,2.786,2.786,0,0,0-.62,1.318h-.737v-5.35h.775a4.3,4.3,0,0,0,4.381,4.07,2,2,0,0,0,2.249-1.861c0-1.008-.892-1.784-2.481-2.52l-2.21-1.047a4.219,4.219,0,0,1-2.714-3.722c0-1.861,1.745-3.45,4.148-3.45a4.855,4.855,0,0,1,3.024,1.008,2.191,2.191,0,0,0,.5-1.047h.737V44.3h-.814c-.272-1.822-1.279-3.334-3.334-3.334-1.086,0-2.094.62-2.094,1.59,0,1.008.814,1.55,2.675,2.4L390.534,46a4.045,4.045,0,0,1,2.6,3.49c0,2.442-2.132,4.147-4.73,4.147Zm11.941,0a5.73,5.73,0,0,1-3.489-1.318,2.786,2.786,0,0,0-.62,1.318H395.5v-5.35h.775a4.3,4.3,0,0,0,4.381,4.07A2,2,0,0,0,402.9,50.5c0-1.008-.892-1.784-2.482-2.52l-2.21-1.047a4.219,4.219,0,0,1-2.714-3.722c0-1.861,1.745-3.45,4.148-3.45a4.855,4.855,0,0,1,3.024,1.008,2.185,2.185,0,0,0,.5-1.047h.737V44.3h-.814c-.272-1.822-1.279-3.334-3.334-3.334-1.086,0-2.094.62-2.094,1.59,0,1.008.814,1.55,2.675,2.4L402.474,46a4.045,4.045,0,0,1,2.6,3.49c0,2.442-2.132,4.147-4.729,4.147Z" transform="translate(-228.778 -24.483)" fill="#fff"></path>
  <g id="Group_16" data-name="Group 16">
    <path id="Path_9" data-name="Path 9" d="M8.708,25.865a17.16,17.16,0,0,0,9.67,15.441L10.193,18.882a17.092,17.092,0,0,0-1.485,6.983ZM37.448,25a9.033,9.033,0,0,0-1.415-4.732c-.87-1.413-1.685-2.61-1.685-4.023A2.971,2.971,0,0,1,37.229,13.2c.076,0,.148.009.222.014A17.154,17.154,0,0,0,11.53,16.441c.4.012.782.021,1.1.021,1.795,0,4.573-.218,4.573-.218a.709.709,0,0,1,.11,1.413s-.929.109-1.964.164L21.6,36.405l3.755-11.261L22.683,17.82c-.924-.054-1.8-.164-1.8-.164a.709.709,0,0,1,.108-1.413s2.833.218,4.519.218c1.794,0,4.573-.218,4.573-.218a.709.709,0,0,1,.11,1.413s-.931.109-1.964.164l6.2,18.444,1.711-5.719A20.727,20.727,0,0,0,37.448,25Z" transform="translate(-5.865 -5.865)" fill="#fff"></path>
    <path id="Path_10" data-name="Path 10" d="M51.564,45.778,46.416,60.737a17.165,17.165,0,0,0,10.544-.274,1.506,1.506,0,0,1-.122-.236Zm14.754-9.732a13.165,13.165,0,0,1,.116,1.764,16.185,16.185,0,0,1-1.3,6.145L59.888,59.108a17.16,17.16,0,0,0,6.43-23.062Z" transform="translate(-31.263 -24.278)" fill="#fff"></path>
    <path id="Path_11" data-name="Path 11" d="M20,0A20,20,0,1,0,40,20,20.023,20.023,0,0,0,20,0Zm0,39.083A19.083,19.083,0,1,1,39.082,20,19.105,19.105,0,0,1,20,39.083Z" fill="#fff"></path>
  </g>
</svg>
